<svg width="48" height="44" viewBox="0 0 48 44" fill="none" xmlns="http://www.w3.org/2000/svg">
<path d="M24 20.1704C23.52 20.298 23.04 20.5533 22.656 20.8511C22.32 21.149 22.08 21.5744 21.936 21.9999C22.08 22.4253 22.368 22.8508 22.704 23.1911C23.088 23.489 23.52 23.7442 24 23.8719C24.48 23.7442 24.96 23.489 25.344 23.1911C25.68 22.8933 25.968 22.4679 26.112 22.0424C25.968 21.617 25.68 21.1915 25.344 20.8511C24.96 20.5108 24.528 20.298 24 20.1704Z" fill="#DB353A"/>
<path d="M24 0.727051C10.752 0.727051 0 10.2572 0 21.9998C0 33.7423 10.752 43.2725 24 43.2725C37.248 43.2725 48 33.7423 48 21.9998C48 10.2572 37.248 0.727051 24 0.727051ZM35.52 27.9987C35.424 29.1049 34.896 30.0834 34.032 30.8492C32.16 32.5085 29.232 32.6787 27.552 31.1471L26.736 30.4663L28.272 29.1049L29.04 29.7856C29.424 30.0834 29.904 30.2961 30.432 30.2536C31.968 30.2111 33.216 29.1474 33.36 27.786C33.408 27.2754 33.216 26.7649 32.832 26.382L29.328 23.2761L27.648 24.7652C27.552 24.8503 27.456 24.8929 27.36 24.978C27.264 25.0631 27.216 25.1056 27.12 25.1907L25.44 26.6798L27.504 28.5092L25.968 29.8707L24 28.0412L20.496 31.1471C19.632 31.9129 18.48 32.2958 17.232 32.1681C15.984 32.0831 14.88 31.6151 14.016 30.8492C12.144 29.19 11.952 26.5947 13.68 25.1056L14.448 24.4249L15.984 25.7863L15.216 26.4671C14.88 26.8074 14.64 27.2329 14.688 27.7009C14.736 29.0623 15.936 30.1685 17.472 30.2961C18.048 30.3387 18.624 30.1685 19.056 29.8281L22.56 26.7223L20.88 25.2332C20.784 25.1481 20.736 25.0631 20.64 24.978C20.544 24.8929 20.496 24.8503 20.4 24.7652L18.72 23.2761L16.656 25.1056L15.12 23.7441L17.184 21.9147L13.68 18.8089C12.816 18.0431 12.384 17.022 12.528 15.9158C12.624 14.8096 13.152 13.8311 14.016 13.0652C15.888 11.406 18.816 11.2358 20.496 12.7674L21.264 13.4481L19.728 14.8096L18.96 14.1289C18.576 13.8311 18.096 13.6183 17.568 13.6609C16.032 13.7034 14.784 14.7671 14.64 16.1285C14.592 16.6391 14.784 17.1496 15.168 17.5325L18.672 20.6383L20.352 19.1492C20.448 19.0641 20.544 19.0216 20.64 18.9365C20.736 18.8514 20.784 18.8089 20.88 18.7238L22.56 17.2347L20.496 15.4052L22.032 14.0438L24.096 15.8732L27.6 12.7674C28.464 12.0016 29.616 11.6187 30.864 11.7463C32.112 11.8314 33.216 12.2994 34.08 13.0652C35.952 14.7245 36.144 17.3198 34.416 18.8089L33.648 19.5321L32.112 18.1707L32.88 17.49C33.216 17.1496 33.456 16.7241 33.408 16.2561C33.36 14.8947 32.16 13.7885 30.624 13.6609C30.048 13.6183 29.472 13.7885 29.04 14.1289L25.536 17.2347L27.216 18.7238C27.312 18.8089 27.36 18.894 27.456 18.9791C27.552 19.0641 27.6 19.1067 27.696 19.1918L29.376 20.6809L31.44 18.8514L32.976 20.2129L30.816 21.9998L34.32 25.1056C35.184 25.8714 35.616 26.9351 35.52 27.9987Z" fill="#DB353A"/>
</svg>
