<svg width="89" height="89" viewBox="0 0 89 89" fill="none" xmlns="http://www.w3.org/2000/svg">
<g filter="url(#filter0_b_107_677)">
<rect width="88.2456" height="88.2456" rx="14.1193" fill="#DB353A" fill-opacity="0.1"/>
<path d="M32 32C30.9391 32 29.9217 32.4214 29.1716 33.1716C28.4214 33.9217 28 34.9391 28 36V38H60V36C60 34.9391 59.5786 33.9217 58.8284 33.1716C58.0783 32.4214 57.0609 32 56 32H32Z" fill="#DB353A"/>
<path fill-rule="evenodd" clip-rule="evenodd" d="M60 42H28V52C28 53.0609 28.4214 54.0783 29.1716 54.8284C29.9217 55.5786 30.9391 56 32 56H56C57.0609 56 58.0783 55.5786 58.8284 54.8284C59.5786 54.0783 60 53.0609 60 52V42ZM32 50C32 49.4696 32.2107 48.9609 32.5858 48.5858C32.9609 48.2107 33.4696 48 34 48H36C36.5304 48 37.0391 48.2107 37.4142 48.5858C37.7893 48.9609 38 49.4696 38 50C38 50.5304 37.7893 51.0391 37.4142 51.4142C37.0391 51.7893 36.5304 52 36 52H34C33.4696 52 32.9609 51.7893 32.5858 51.4142C32.2107 51.0391 32 50.5304 32 50ZM42 48C41.4696 48 40.9609 48.2107 40.5858 48.5858C40.2107 48.9609 40 49.4696 40 50C40 50.5304 40.2107 51.0391 40.5858 51.4142C40.9609 51.7893 41.4696 52 42 52H44C44.5304 52 45.0391 51.7893 45.4142 51.4142C45.7893 51.0391 46 50.5304 46 50C46 49.4696 45.7893 48.9609 45.4142 48.5858C45.0391 48.2107 44.5304 48 44 48H42Z" fill="#DB353A"/>
</g>
<defs>
<filter id="filter0_b_107_677" x="-35.2982" y="-35.2982" width="158.842" height="158.842" filterUnits="userSpaceOnUse" color-interpolation-filters="sRGB">
<feFlood flood-opacity="0" result="BackgroundImageFix"/>
<feGaussianBlur in="BackgroundImageFix" stdDeviation="17.6491"/>
<feComposite in2="SourceAlpha" operator="in" result="effect1_backgroundBlur_107_677"/>
<feBlend mode="normal" in="SourceGraphic" in2="effect1_backgroundBlur_107_677" result="shape"/>
</filter>
</defs>
</svg>
