<svg width="89" height="89" viewBox="0 0 89 89" fill="none" xmlns="http://www.w3.org/2000/svg">
<g filter="url(#filter0_b_107_685)">
<rect width="88.2456" height="88.2456" rx="14.1193" fill="#DB353A" fill-opacity="0.1"/>
<path fill-rule="evenodd" clip-rule="evenodd" d="M44 60.2012C48.2435 60.2012 52.3131 58.5155 55.3137 55.5149C58.3143 52.5143 60 48.4446 60 44.2012C60 39.9577 58.3143 35.888 55.3137 32.8875C52.3131 29.8869 48.2435 28.2012 44 28.2012C39.7565 28.2012 35.6869 29.8869 32.6863 32.8875C29.6857 35.888 28 39.9577 28 44.2012C28 48.4446 29.6857 52.5143 32.6863 55.5149C35.6869 58.5155 39.7565 60.2012 44 60.2012ZM46 36.2012C46 35.6707 45.7893 35.162 45.4142 34.787C45.0391 34.4119 44.5304 34.2012 44 34.2012C43.4696 34.2012 42.9609 34.4119 42.5858 34.787C42.2107 35.162 42 35.6707 42 36.2012V44.2012C42.0001 44.7316 42.2109 45.2402 42.586 45.6152L48.242 51.2732C48.4278 51.459 48.6484 51.6064 48.8912 51.707C49.134 51.8075 49.3942 51.8593 49.657 51.8593C49.9198 51.8593 50.18 51.8075 50.4228 51.707C50.6656 51.6064 50.8862 51.459 51.072 51.2732C51.2578 51.0873 51.4052 50.8667 51.5058 50.624C51.6063 50.3812 51.6581 50.121 51.6581 49.8582C51.6581 49.5954 51.6063 49.3352 51.5058 49.0924C51.4052 48.8496 51.2578 48.629 51.072 48.4432L46 43.3732V36.2012Z" fill="#DB353A"/>
</g>
<defs>
<filter id="filter0_b_107_685" x="-35.2982" y="-35.2982" width="158.842" height="158.842" filterUnits="userSpaceOnUse" color-interpolation-filters="sRGB">
<feFlood flood-opacity="0" result="BackgroundImageFix"/>
<feGaussianBlur in="BackgroundImageFix" stdDeviation="17.6491"/>
<feComposite in2="SourceAlpha" operator="in" result="effect1_backgroundBlur_107_685"/>
<feBlend mode="normal" in="SourceGraphic" in2="effect1_backgroundBlur_107_685" result="shape"/>
</filter>
</defs>
</svg>
